<mxfile host="app.diagrams.net" modified="2023-05-23T02:01:41.560Z" agent="Mozilla/5.0 (Macintosh; Intel Mac OS X 10_15_7) AppleWebKit/537.36 (KHTML, like Gecko) Chrome/113.0.0.0 Safari/537.36 Edg/113.0.1774.50" version="21.2.2" etag="mykk_IExTAJ2PfhFerlS" type="github">
  <diagram name="Page-1" id="gIoBsV7-slm0S17C3uB4">
    <mxGraphModel>
      <root>
        <mxCell id="0" />
        <mxCell id="1" parent="0" />
      </root>
    </mxGraphModel>
  </diagram>
</mxfile>
